<?xml version="1.0" standalone="no"?>
<!DOCTYPE svg PUBLIC "-//W3C//DTD SVG 20010904//EN"
 "http://www.w3.org/TR/2001/REC-SVG-20010904/DTD/svg10.dtd">
<svg version="1.0" xmlns="http://www.w3.org/2000/svg"
 width="300.000000pt" height="80.000000pt" viewBox="0 0 300.000000 80.000000"
 preserveAspectRatio="xMidYMid meet">
<metadata>
Created by potrace 1.16, written by Peter Selinger 2001-2019
</metadata>
<g transform="translate(0.000000,80.000000) scale(0.100000,-0.100000)"
fill="rgb(202, 202, 202)" stroke="none">
<path d="M274 703 c5 -29 1 -46 -14 -71 -26 -43 -54 -40 -58 6 -3 25 -8 32
-20 30 -12 -3 -16 -12 -14 -30 3 -30 -25 -52 -53 -42 -13 5 -12 -3 8 -48 20
-45 22 -57 12 -72 -7 -9 -21 -48 -30 -85 -19 -79 -11 -113 35 -139 16 -9 30
-24 30 -33 0 -9 11 -24 25 -33 14 -9 25 -23 25 -30 0 -10 9 -13 29 -10 16 3
32 0 36 -6 4 -7 13 -5 28 5 12 8 31 15 43 15 22 0 54 37 54 62 0 7 14 21 30
30 43 25 54 61 39 128 -6 30 -20 69 -30 87 -17 30 -17 32 7 83 l24 52 -24 -6
c-29 -7 -64 20 -47 37 12 12 3 37 -15 37 -9 0 -14 -11 -14 -29 0 -42 -29 -49
-58 -15 -18 21 -23 36 -20 68 2 33 0 41 -16 44 -16 3 -17 -1 -12 -35z m106
-195 c44 -31 80 -79 62 -85 -10 -4 -10 -9 3 -23 27 -30 30 -81 5 -113 -12 -15
-30 -27 -41 -27 -13 0 -19 -7 -19 -22 0 -17 -12 -29 -45 -45 -30 -14 -45 -18
-46 -10 0 9 -2 9 -6 0 -6 -17 -32 -16 -39 1 -3 8 -18 16 -35 20 -21 4 -29 11
-29 26 0 12 -9 24 -24 30 -26 9 -56 46 -56 68 0 7 7 29 17 50 9 20 15 43 14
50 -3 21 27 61 62 82 46 29 134 27 177 -2z"/>
<path d="M605 538 c-3 -7 -14 -67 -25 -133 -12 -66 -23 -128 -26 -137 -4 -15
1 -18 34 -18 l39 0 12 75 c7 41 14 75 16 75 2 0 9 -18 15 -40 9 -35 14 -40 40
-40 22 0 33 8 50 35 12 19 24 35 27 35 6 0 -2 -72 -13 -115 -6 -23 -4 -25 33
-25 l38 0 23 133 c29 172 29 167 -12 167 -30 0 -37 -6 -81 -72 l-48 -73 -25
73 c-23 71 -24 72 -58 72 -19 0 -37 -6 -39 -12z"/>
<path d="M986 541 c-3 -5 -28 -72 -56 -150 l-49 -141 38 0 c34 0 40 4 50 30 9
26 15 30 47 30 35 0 36 -1 32 -30 -4 -29 -3 -30 34 -30 l38 0 0 150 0 150 -64
0 c-36 0 -67 -4 -70 -9z"/>
<path d="M1273 543 c-33 -7 -71 -47 -82 -89 -18 -69 -24 -150 -12 -172 22 -42
132 -48 178 -10 20 16 43 70 43 98 0 19 -5 21 -52 18 -46 -3 -53 -6 -56 -25
-2 -16 2 -23 14 -23 13 0 14 -3 4 -15 -15 -18 -56 -20 -63 -2 -6 16 11 115 25
140 6 12 18 17 36 15 22 -2 28 -9 30 -36 3 -31 6 -33 34 -30 24 2 34 10 41 31
24 74 -39 120 -140 100z"/>
<path d="M1523 536 c-44 -20 -61 -51 -78 -139 -22 -116 -1 -152 91 -151 91 2
124 39 140 159 10 75 7 95 -16 119 -23 24 -96 30 -137 12z"/>
<path d="M1850 548 c0 -2 -11 -64 -25 -138 -14 -74 -25 -141 -25 -147 0 -19
143 -17 180 2 39 20 55 54 70 144 11 68 11 75 -7 100 -11 14 -33 29 -49 32
-28 6 -144 11 -144 7z"/>
<path d="M2125 540 c-6 -9 -55 -262 -55 -283 0 -4 46 -6 103 -5 l102 3 3 28
c3 27 3 27 -57 27 -58 0 -61 1 -61 25 0 24 3 25 54 25 56 0 66 8 66 51 0 16
-7 19 -50 19 -46 0 -50 2 -50 25 0 23 3 24 68 27 l67 3 3 33 3 32 -95 0 c-54
0 -98 -4 -101 -10z"/>
<path d="M2521 537 c-45 -16 -69 -50 -81 -116 -26 -137 -8 -174 84 -174 94 0
123 33 145 161 11 64 11 75 -4 98 -28 42 -79 54 -144 31z"/>
<path d="M2730 531 c-22 -41 -13 -50 51 -53 l61 -3 -76 -82 c-48 -51 -78 -93
-82 -113 l-7 -31 109 3 109 3 3 27 c3 26 2 27 -58 30 l-62 3 81 87 c65 69 81
92 81 117 l0 31 -100 0 c-88 0 -100 -2 -110 -19z"/>
</g>
</svg>
