<?xml version="1.0" standalone="no"?>
<!DOCTYPE svg PUBLIC "-//W3C//DTD SVG 20010904//EN"
 "http://www.w3.org/TR/2001/REC-SVG-20010904/DTD/svg10.dtd">
<svg version="1.0" xmlns="http://www.w3.org/2000/svg"
 width="45px" height="75px" viewBox="0 0 72.000000 110.000000"
 preserveAspectRatio="xMidYMid meet">
<metadata>
Created by potrace 1.16, written by Peter Selinger 2001-2019
</metadata>
<g transform="translate(0.000000,110.000000) scale(0.100000,-0.100000)"
fill="rgb(202, 202, 202)" stroke="none">
<path d="M327 1023 c-4 -4 -4 -28 -1 -54 8 -59 -8 -107 -47 -145 -37 -35 -61
-25 -70 30 -7 43 -22 61 -43 53 -10 -4 -16 -19 -16 -39 0 -49 -24 -78 -66 -78
-19 0 -34 -4 -34 -8 0 -5 11 -36 25 -70 14 -34 25 -71 25 -83 0 -11 -14 -60
-31 -107 -24 -66 -31 -106 -33 -165 l-1 -77 60 -59 c55 -54 128 -139 144 -168
11 -19 139 -18 196 2 59 21 111 66 118 103 4 17 24 41 56 64 69 52 81 92 59
199 -9 44 -28 104 -42 135 -14 31 -26 65 -26 75 0 10 15 52 34 93 l34 74 -34
-5 c-50 -8 -88 19 -80 58 7 38 -2 59 -25 59 -12 0 -21 -9 -24 -25 -3 -14 -7
-36 -10 -50 -4 -18 -12 -25 -28 -25 -55 0 -97 65 -97 153 0 41 -4 56 -16 61
-19 7 -19 7 -27 -1z m150 -368 c28 -14 70 -46 93 -71 36 -39 41 -50 36 -76 -4
-21 0 -37 15 -57 57 -77 14 -205 -75 -222 -12 -3 -23 -16 -28 -37 -9 -35 -45
-63 -107 -83 -25 -9 -35 -8 -41 1 -5 8 -9 7 -13 -4 -9 -22 -49 -20 -69 4 -10
11 -30 22 -45 26 -37 9 -53 22 -53 45 0 10 -12 26 -26 36 -59 41 -82 64 -97
95 -14 29 -14 36 8 97 13 36 27 84 31 106 9 51 81 129 137 149 23 8 74 15 113
15 56 1 80 -4 121 -24z"/>
</g>
</svg>
